<?xml version="1.0" encoding="UTF-8" standalone="no"?>
<svg
   viewBox="0 0 576 736"
   role="img"
   aria-label="Floor plan of the Quarter Twin: 4.6 metres by 6.2 metres, 28 square metres, with the bathroom by the entrance and full-height glazing along the far wall."
   version="1.1"
   id="svg30"
   xmlns="http://www.w3.org/2000/svg"
   xmlns:svg="http://www.w3.org/2000/svg">
  <defs
     id="defs30" />
  <rect
     x="58.0"
     y="58.0"
     width="460.0"
     height="620.0"
     fill="#f7f4ee"
     id="rect1" />
  <rect
     x="328.0"
     y="448.0"
     width="190.0"
     height="230.0"
     fill="#e7eeea"
     id="rect2" />
  <path
     d="M58.0 58.0 L518.0 58.0"
     stroke="#c8d2cc"
     stroke-width="14"
     stroke-linecap="square"
     id="path2" />
  <path
     d="M58.0 58.0 L518.0 58.0"
     stroke="#6fa2b8"
     stroke-width="4"
     id="path3" />
  <path
     d="M58.0 678.0 L58.0 58.0"
     stroke="#2c3d35"
     stroke-width="14"
     stroke-linecap="square"
     id="path4" />
  <path
     d="M518.0 678.0 L518.0 58.0"
     stroke="#2c3d35"
     stroke-width="14"
     stroke-linecap="square"
     id="path5" />
  <path
     d="M58.0 678.0 L187.5 678.0"
     stroke="#2c3d35"
     stroke-width="14"
     stroke-linecap="square"
     id="path6" />
  <path
     d="M282.5 678.0 L518.0 678.0"
     stroke="#2c3d35"
     stroke-width="14"
     stroke-linecap="square"
     id="path7" />
  <path
     d="M282.5 678.0 A95.0 95.0 0 0 1 187.5 583.0"
     fill="none"
     stroke="#a86136"
     stroke-width="2.4"
     stroke-dasharray="8 6"
     id="path8" />
  <path
     d="M187.5 678.0 V583.0"
     stroke="#a86136"
     stroke-width="5"
     stroke-linecap="round"
     id="path9" />
  <path
     d="M328.0 678.0 L328.0 448.0"
     stroke="#2c3d35"
     stroke-width="14"
     stroke-linecap="square"
     id="path10" />
  <path
     d="M328.0 448.0 L518.0 448.0"
     stroke="#6fa2b8"
     stroke-width="5"
     id="path11" />
  <rect
     x="464.0"
     y="541.2"
     width="52.0"
     height="126.5"
     rx="4"
     fill="#cfd8d2"
     stroke="#7d918a"
     stroke-width="1.6"
     id="rect11" />
  <rect
     x="333.0"
     y="460.0"
     width="100.0"
     height="100.0"
     rx="4"
     fill="#dfe6e1"
     stroke="#7d918a"
     stroke-width="1.6"
     id="rect12" />
  <rect
     x="339.0"
     y="605.0"
     width="38.0"
     height="62.0"
     rx="4"
     fill="#cfd8d2"
     stroke="#7d918a"
     stroke-width="1.6"
     id="rect13" />
  <rect
     x="208.0"
     y="68.0"
     width="220.0"
     height="360.0"
     fill="#eeeae1"
     stroke="#ddd6c9"
     stroke-width="1.5"
     stroke-dasharray="6 5"
     id="rect14" />
  <rect
     x="63.5"
     y="292.0"
     width="205.0"
     height="162.0"
     rx="4"
     fill="#b9c7bf"
     stroke="#7d918a"
     stroke-width="1.8"
     id="rect15" />
  <rect
     x="63.5"
     y="77.0"
     width="205.0"
     height="162.0"
     rx="4"
     fill="#b9c7bf"
     stroke="#7d918a"
     stroke-width="1.8"
     id="rect16" />
  <rect
     x="66.0"
     y="245.0"
     width="48.0"
     height="42.0"
     rx="4"
     fill="#cfd8d2"
     stroke="#7d918a"
     stroke-width="1.8"
     id="rect17" />
  <rect
     x="472.0"
     y="173.0"
     width="42.0"
     height="170.0"
     rx="4"
     fill="#cfd8d2"
     stroke="#7d918a"
     stroke-width="1.8"
     id="rect18" />
  <rect
     x="363.0"
     y="64.0"
     width="130.0"
     height="58.0"
     rx="4"
     fill="#cfd8d2"
     stroke="#7d918a"
     stroke-width="1.8"
     id="rect19" />
  <rect
     x="403.0"
     y="127.0"
     width="50.0"
     height="52.0"
     rx="4"
     fill="#cfd8d2"
     stroke="#7d918a"
     stroke-width="1.8"
     id="rect20" />
  <rect
     x="65.0"
     y="520.5"
     width="62.0"
     height="125.0"
     rx="4"
     fill="#cfd8d2"
     stroke="#7d918a"
     stroke-width="1.8"
     id="rect21" />
  <rect
     x="163.0"
     y="506.0"
     width="110.0"
     height="44.0"
     rx="4"
     fill="#cfd8d2"
     stroke="#7d918a"
     stroke-width="1.8"
     id="rect22" />
  <rect
     x="453.0"
     y="68.0"
     width="50.0"
     height="50.0"
     rx="4"
     fill="#dfe6e1"
     stroke="#7d918a"
     stroke-width="1.8"
     id="rect23" />
  <text
     x="166.0"
     y="378.3"
     text-anchor="middle"
     font-family="Figtree, sans-serif"
     font-size="15.0"
     font-weight="600"
     fill="#44554d"
     id="text23">Queen</text>
  <text
     x="166.0"
     y="163.2"
     text-anchor="middle"
     font-family="Figtree, sans-serif"
     font-size="15.0"
     font-weight="600"
     fill="#44554d"
     id="text24">Queen</text>
  <text
     x="493.0"
     y="263.2"
     text-anchor="middle"
     font-family="Figtree, sans-serif"
     font-size="15.0"
     font-weight="600"
     fill="#44554d"
     id="text25">TV</text>
  <text
     x="428.0"
     y="98.3"
     text-anchor="middle"
     font-family="Figtree, sans-serif"
     font-size="15.0"
     font-weight="600"
     fill="#44554d"
     id="text26">Desk</text>
  <text
     x="218.0"
     y="533.2"
     text-anchor="middle"
     font-family="Figtree, sans-serif"
     font-size="15.0"
     font-weight="600"
     fill="#44554d"
     id="text27">Bench</text>
  <rect
     x="375.0"
     y="465.2"
     width="96.0"
     height="25.5"
     rx="12.8"
     fill="#ffffff"
     fill-opacity="0.88"
     id="rect27" />
  <text
     x="423.0"
     y="482.8"
     text-anchor="middle"
     font-family="Figtree, sans-serif"
     font-size="12.9"
     font-weight="700"
     fill="#6d8279"
     letter-spacing="2"
     id="text28">BATHROOM</text>
  <path
     d="M58.0 32.0 H518.0 M58.0 25.0 v14 M518.0 25.0 v14"
     stroke="#44554d"
     stroke-width="2"
     id="path28" />
  <rect
     x="258.0"
     y="20.0"
     width="60.0"
     height="24.0"
     fill="#ffffff"
     id="rect28" />
  <text
     x="288.0"
     y="37.2"
     text-anchor="middle"
     font-family="Figtree, sans-serif"
     font-size="15.0"
     font-weight="700"
     fill="#44554d"
     id="text29">4.6 m</text>
  <path
     d="M32.0 678.0 V58.0 M25.0 678.0 h14 M25.0 58.0 h14"
     stroke="#44554d"
     stroke-width="2"
     id="path29" />
  <g
     transform="translate(32.0 368.0) rotate(-90)"
     id="g30">
    <rect
       x="-30.0"
       y="-12.0"
       width="60.0"
       height="24.0"
       fill="#ffffff"
       id="rect29" />
    <text
       x="0"
       y="5.2"
       text-anchor="middle"
       font-family="Figtree, sans-serif"
       font-size="15.0"
       font-weight="700"
       fill="#44554d"
       id="text30">6.2 m</text>
  </g>
</svg>
